<svg width="15" height="15" viewBox="0 0 15 15" fill="none" xmlns="http://www.w3.org/2000/svg">
<path d="M12.779 0.568516C12.718 0.50752 12.635 0.473622 12.5488 0.474536C12.4628 0.475145 12.3805 0.508738 12.3187 0.568516L7.67673 5.21028L7.66384 5.22337L7.65735 5.22987C7.65095 5.23961 7.64121 5.24935 7.63471 5.259C7.63471 5.26224 7.63147 5.26224 7.63147 5.26549C7.62497 5.27513 7.62162 5.28173 7.61523 5.29137C7.61188 5.29462 7.61188 5.29797 7.60873 5.30111C7.60549 5.31086 7.60234 5.31735 7.59899 5.3271C7.59899 5.33034 7.59574 5.33034 7.59574 5.33349L6.7691 7.8263C6.72952 7.9423 6.75966 8.07089 6.84705 8.15695C6.90825 8.21734 6.99096 8.25113 7.07702 8.25093C7.11224 8.25022 7.14726 8.24484 7.18085 8.23469L9.66716 7.40491C9.67031 7.40491 9.67031 7.40491 9.67356 7.40166C9.68381 7.39872 9.69375 7.39435 9.70269 7.38877C9.70522 7.38836 9.70756 7.38725 9.70928 7.38542C9.71892 7.37903 9.73191 7.37253 9.74166 7.36594C9.7513 7.35944 9.76104 7.3497 9.77079 7.3433C9.77413 7.34016 9.77728 7.34016 9.77728 7.33681C9.78053 7.33356 9.78702 7.33031 9.79037 7.32392L14.4353 2.67881C14.4961 2.61811 14.5302 2.53591 14.5302 2.45025C14.5302 2.36449 14.4961 2.28218 14.4353 2.22169L12.779 0.568516ZM8.04636 6.04017L8.96373 6.95754L7.58925 7.41455L8.04636 6.04017ZM9.56344 6.63987L8.36403 5.44056L12.5488 1.25571L13.7481 2.45502L9.56344 6.63987Z" fill="white"/>
<path d="M12.0139 6.53289C11.8351 6.5334 11.6903 6.67822 11.6898 6.85705V12.9155C11.6882 13.4519 11.2539 13.8863 10.7173 13.888H2.08845C1.55208 13.8863 1.11749 13.4519 1.11597 12.9155V4.2865C1.11749 3.75012 1.55208 3.31564 2.08845 3.31402H8.14673C8.32586 3.31402 8.47089 3.16888 8.47089 2.98986C8.47089 2.81083 8.32586 2.6657 8.14673 2.6657H2.08845C1.19341 2.6661 0.468057 3.39156 0.467651 4.2865V12.9155C0.468057 13.8105 1.19341 14.5359 2.08845 14.5362H10.7173C11.6123 14.5359 12.3378 13.8105 12.3381 12.9155V6.85705C12.3376 6.67822 12.1927 6.5334 12.0139 6.53289Z" fill="white"/>
</svg>
