<svg width="15" height="15" viewBox="0 0 15 15" fill="none" xmlns="http://www.w3.org/2000/svg">
<path d="M13.8965 2.49996C13.8965 3.62183 12.9871 4.53129 11.8653 4.53129C10.7434 4.53129 9.83405 3.62183 9.83405 2.49996C9.83405 1.37821 10.7434 0.46875 11.8653 0.46875C12.9871 0.46875 13.8965 1.37821 13.8965 2.49996Z" fill="white"/>
<path d="M11.8653 5.00004C10.4865 5.00004 9.3653 3.87875 9.3653 2.49996C9.3653 1.12129 10.4865 0 11.8653 0C13.244 0 14.3652 1.12129 14.3652 2.49996C14.3652 3.87875 13.244 5.00004 11.8653 5.00004ZM11.8653 0.9375C11.0034 0.9375 10.3028 1.63879 10.3028 2.49996C10.3028 3.36124 11.0034 4.06254 11.8653 4.06254C12.7271 4.06254 13.4277 3.36124 13.4277 2.49996C13.4277 1.63879 12.7271 0.9375 11.8653 0.9375Z" fill="white"/>
<path d="M13.8965 12.5C13.8965 13.6218 12.9871 14.5313 11.8653 14.5313C10.7434 14.5313 9.83405 13.6218 9.83405 12.5C9.83405 11.3782 10.7434 10.4687 11.8653 10.4687C12.9871 10.4687 13.8965 11.3782 13.8965 12.5Z" fill="white"/>
<path d="M11.8653 15C10.4865 15 9.3653 13.8787 9.3653 12.5C9.3653 11.1213 10.4865 9.99997 11.8653 9.99997C13.244 9.99997 14.3652 11.1213 14.3652 12.5C14.3652 13.8787 13.244 15 11.8653 15ZM11.8653 10.9375C11.0034 10.9375 10.3028 11.6388 10.3028 12.5C10.3028 13.3612 11.0034 14.0625 11.8653 14.0625C12.7271 14.0625 13.4277 13.3612 13.4277 12.5C13.4277 11.6388 12.7271 10.9375 11.8653 10.9375Z" fill="white"/>
<path d="M5.14652 7.49999C5.14652 8.62186 4.23706 9.5312 3.1152 9.5312C1.99345 9.5312 1.08398 8.62186 1.08398 7.49999C1.08398 6.37813 1.99345 5.46878 3.1152 5.46878C4.23706 5.46878 5.14652 6.37813 5.14652 7.49999Z" fill="white"/>
<path d="M3.1152 9.99995C1.73653 9.99995 0.615234 8.87878 0.615234 7.49999C0.615234 6.12121 1.73653 5.00003 3.1152 5.00003C4.49398 5.00003 5.61527 6.12121 5.61527 7.49999C5.61527 8.87878 4.49398 9.99995 3.1152 9.99995ZM3.1152 5.93753C2.25334 5.93753 1.55273 6.63871 1.55273 7.49999C1.55273 8.36127 2.25334 9.06245 3.1152 9.06245C3.97717 9.06245 4.67777 8.36127 4.67777 7.49999C4.67777 6.63871 3.97717 5.93753 3.1152 5.93753Z" fill="white"/>
<path d="M4.59089 7.20004C4.37334 7.20004 4.16208 7.08686 4.04707 6.88442C3.87644 6.58504 3.9815 6.20315 4.28087 6.03183L10.0802 2.72564C10.3795 2.55375 10.7614 2.65881 10.9328 2.95933C11.1034 3.2587 10.9983 3.64059 10.699 3.81191L4.89954 7.1181C4.80204 7.17372 4.69584 7.20004 4.59089 7.20004Z" fill="white"/>
<path d="M10.3896 12.3563C10.2846 12.3563 10.1783 12.33 10.0808 12.2744L4.28146 8.96816C3.98208 8.79753 3.87714 8.41564 4.04777 8.11558C4.21771 7.81563 4.60018 7.71 4.90024 7.88189L10.6996 11.1881C10.999 11.3587 11.1039 11.7406 10.9333 12.0407C10.8177 12.2431 10.6065 12.3563 10.3896 12.3563Z" fill="white"/>
</svg>
