<svg width="20" height="20" viewBox="0 0 20 20" fill="none" xmlns="http://www.w3.org/2000/svg">
<path d="M17.9065 14.8703C17.5603 14.6128 17.0709 14.6847 16.8134 15.0309C16.6717 15.2212 16.5202 15.408 16.3629 15.5859C16.0771 15.9092 16.1075 16.4029 16.4307 16.6887C16.5794 16.8201 16.7639 16.8847 16.9479 16.8847C17.1639 16.8847 17.3791 16.7955 17.5335 16.6208C17.7198 16.4101 17.8993 16.1889 18.067 15.9634C18.3245 15.6173 18.2527 15.1278 17.9065 14.8703Z" fill="white"/>
<path d="M19.2131 11.2065C18.7917 11.1147 18.3753 11.3821 18.2835 11.8036C18.233 12.0356 18.172 12.2679 18.102 12.4943C17.9747 12.9066 18.2056 13.344 18.6178 13.4714C18.6947 13.4951 18.7723 13.5064 18.8487 13.5064C19.1823 13.5064 19.4912 13.291 19.5949 12.9555C19.6779 12.6868 19.7504 12.4111 19.8103 12.136C19.902 11.7144 19.6347 11.2982 19.2131 11.2065Z" fill="white"/>
<path d="M14.146 17.3724C13.9386 17.4882 13.7238 17.5964 13.5078 17.694C13.1145 17.8716 12.9397 18.3344 13.1173 18.7276C13.2477 19.0165 13.5321 19.1875 13.8297 19.1875C13.9372 19.1875 14.0465 19.1652 14.1508 19.1181C14.4072 19.0023 14.6618 18.874 14.9078 18.7367C15.2845 18.5263 15.4194 18.0504 15.209 17.6737C14.9987 17.297 14.5228 17.1621 14.146 17.3724Z" fill="white"/>
<path d="M9.21874 3.75V9.67641L6.35393 12.5412C6.04885 12.8463 6.04885 13.3409 6.35393 13.646C6.50651 13.7986 6.70639 13.8748 6.90639 13.8748C7.10631 13.8748 7.30628 13.7986 7.45885 13.646L10.5524 10.5524C10.6989 10.4059 10.7812 10.2072 10.7812 10V3.75C10.7812 3.31852 10.4315 2.96875 9.99999 2.96875C9.5685 2.96875 9.21874 3.31852 9.21874 3.75Z" fill="white"/>
<path d="M19.2188 1.67969C18.7873 1.67969 18.4375 2.02945 18.4375 2.46094V4.63031C16.6191 1.77844 13.4434 0 10 0C7.32891 0 4.8177 1.0402 2.92891 2.92891C1.0402 4.8177 0 7.32891 0 10C0 12.6711 1.0402 15.1823 2.92891 17.0711C4.8177 18.9598 7.32891 20 10 20C10.0066 20 10.013 19.9992 10.0195 19.999C10.0261 19.9992 10.0325 20 10.0391 20C10.3206 20 10.605 19.9881 10.8843 19.9648C11.3142 19.9287 11.6336 19.551 11.5976 19.1211C11.5616 18.6911 11.1843 18.3716 10.7539 18.4077C10.5178 18.4275 10.2773 18.4375 10.0391 18.4375C10.0325 18.4375 10.0261 18.4383 10.0195 18.4385C10.013 18.4383 10.0066 18.4375 10 18.4375C5.34754 18.4375 1.5625 14.6525 1.5625 10C1.5625 5.34754 5.34754 1.5625 10 1.5625C12.9984 1.5625 15.7561 3.16066 17.2631 5.70312H15.115C14.6835 5.70312 14.3337 6.05289 14.3337 6.48438C14.3337 6.91586 14.6835 7.26562 15.115 7.26562H17.5C17.9758 7.26562 18.4209 7.13191 18.7999 6.90027C18.8243 6.88637 18.8477 6.87141 18.87 6.85527C19.55 6.40797 20 5.63855 20 4.76562V2.46094C20 2.02945 19.6502 1.67969 19.2188 1.67969Z" fill="white"/>
</svg>
